{"title":"The Zero Theorem 2013 BluRay.1080p.5.1.x264 . NVEE","uid":10681574,"size":2435360024,"categoryP":"video","categoryS":"hd___movies","magnet":"?xt=urn:btih:434c826cbb87304aa985ac60ef88a70f96d08682&amp;dn=The+Zero+Theorem+2013+BluRay.1080p.5.1.x264+.+NVEE&amp;tr=udp%3A%2F%2Ftracker.openbittorrent.com%3A80&amp;tr=udp%3A%2F%2Fopen.demonii.com%3A1337&amp;tr=udp%3A%2F%2Ftracker.coppersurfer.tk%3A6969&amp;tr=udp%3A%2F%2Fexodus.desync.com%3A6969","seeders":2,"leechers":0,"uploader":".NVEE","files":-1,"time":1407037832,"description":"Quick note :\nPlease forgive unique resolution &amp; black corners throughout,... Not my doing,... My physical Blu-ray is exactly the same, please do some research on reviews in regards. \nDirector, Terry Gilliam framed this film with black borders &amp; rounded corners to simulate camera gates found in old film projectors. While black corners are minimal, rounded corners are left untouched.\nEven if you watch it in a Master Class Print, it'll be the same. This &quot;resolution&quot; is part of the film, these are not artifacts due to the encoding !\nThis is to maximize both content &amp; quality, while leaving director's artistic intention intact.\n\nPlease seed to a Share Ratio of at least 1.1\nIf you require a torrent release I have posted in the past, not seeding,...\nPlease do not hesitate to inform me in any means you find fit to do so.\nTorrent requests also &quot;Always Welcome.&quot;\n\n\nFULL_INFOs\n\n99.99% --- SYNCED GUARANTEED \n\n&quot;Totally scrutinized / analyzed to be a verified torrent.&quot;\n___________________________________________\n\nSource : Blu-ray ~ 1080p\n\n\n\nSpoken Language : English\n\nAudio : 6 ~ Channels Only\n\n\nSubs Info :\n\nN/A\n\nAll .srt UTF-8 .idx &amp; .ass subs can be turned On/Off\n_____________________________________\n---------------------------------------------------------------------------------\n\nGeneral Metadata\n\nComplete name : The Zero Theorem 2013.BluRay.1036p.5.1.x264 . NVEE.mp4\nFormat : MPEG-4\nFormat profile : Base Media\nCodec ID : isom\nFile size : 2.27 GiB\nDuration : 1h 46mn\nOverall bit rate : 3 050 Kbps\nEncoded date : UTC 2014-08-02 12:51:49\nTagged date : UTC 2014-08-02 12:51:49\n\n\nVideo\n\nID : 1\nFormat : AVC\nFormat/Info : Advanced Video Codec\nFormat profile : &lt;a class=&quot;__cf_email__&quot; href=&quot;/cdn-cgi/l/email-protection&quot; data-cfemail=&quot;e6ae8f818ea6aad2c8d7&quot;&gt;[email&amp;#160;protected]&lt;/a&gt;&lt;script cf-hash='f9e31' type=&quot;text/javascript&quot;&gt;\n/* &lt;![CDATA[ */!function(){try{var t=&quot;currentScript&quot;in document?document.currentScript:function(){for(var t=document.getElementsByTagName(&quot;script&quot;),e=t.length;e--;)if(t[e].getAttribute(&quot;cf-hash&quot;))return t[e]}();if(t&amp;&amp;t.previousSibling){var e,r,n,i,c=t.previousSibling,a=c.getAttribute(&quot;data-cfemail&quot;);if(a){for(e=&quot;&quot;,r=parseInt(a.substr(0,2),16),n=2;a.length-n;n+=2)i=parseInt(a.substr(n,2),16)^r,e+=String.fromCharCode(i);e=document.createTextNode(e),c.parentNode.replaceChild(e,c)}}}catch(u){}}();/* ]]&gt; */&lt;/script&gt;\nFormat settings, CABAC : Yes\nFormat settings, ReFrames : 3 frames\nCodec ID : avc1\nCodec ID/Info : Advanced Video Coding\nDuration : 1h 46mn\nBit rate : 2 410 Kbps\nMaximum bit rate : 16.5 Mbps\nWidth : 1 816 pixels\nHeight : 1 036 pixels\nDisplay aspect ratio : 16:9\nFrame rate mode : Constant\nFrame rate : 23.976 fps\nColor space : YUV\nChroma subsampling : 4:2:0\nBit depth : 8 bits\nScan type : Progressive\nBits/(Pixel*Frame) : 0.053\nStream size : 1.79 GiB (79%)\nWriting library : x264 core 142 r2431 ac76440\nEncoded from Physical Blu-ray / Region A\n\n\nAudio\n\nID : 2\nFormat : AC-3\nFormat/Info : Audio Coding 3\nMode extension : CM (complete main)\nFormat settings, Endianness : Big\nCodec ID : ac-3\nDuration : 1h 46mn\nBit rate mode : Constant\nBit rate : 640 Kbps\nChannel(s) : 6 channels\nChannel positions : Front: L C R, Side: L R, LFE\nSampling rate : 48.0 KHz\nBit depth : 16 bits\nCompression mode : Lossy\nStream size : 487 MiB (21%)\nLanguage : English\nEncoded date : UTC 2014-08-02 13:01:45\nTagged date : UTC 2014-08-02 13:03:23\nEncoded from Physical Blu-ray 6 Channel audio &quot;Always&quot;.\n\n\nEnj0y !","torrent":{"xt":"urn:btih:434c826cbb87304aa985ac60ef88a70f96d08682","amp;dn":"The+Zero+Theorem+2013+BluRay.1080p.5.1.x264+.+NVEE","amp;tr":["udp%3A%2F%2Ftracker.openbittorrent.com%3A80","udp%3A%2F%2Fopen.demonii.com%3A1337","udp%3A%2F%2Ftracker.coppersurfer.tk%3A6969","udp%3A%2F%2Fexodus.desync.com%3A6969"],"infoHash":"434c826cbb87304aa985ac60ef88a70f96d08682","infoHashBuffer":{"type":"Buffer","data":[67,76,130,108,187,135,48,74,169,133,172,96,239,136,167,15,150,208,134,130]},"announce":[],"urlList":[]}}